<svg id="Layer_1" height="512" viewBox="0 0 512 512" width="512" xmlns="http://www.w3.org/2000/svg" data-name="Layer 1"><path d="m475.331 245.292c-2.7-2.994-3.823-4.233-3.823-11.816v-57.9a17.424 17.424 0 0 0 -17.27-17.367l-9.315-.256v-10.611a4 4 0 0 0 -4-4h-6.571v-16.423a15.893 15.893 0 0 0 -31.786 0v16.423h-6.566a4 4 0 0 0 -4 4v237.618a3.991 3.991 0 0 0 .436 1.816l22.464 44.088a4 4 0 0 0 3.564 2.184 4 4 0 0 0 3.564-2.188l22.464-44.208a4 4 0 0 0 .434-1.812v-210.885l8.913.245a1.553 1.553 0 0 1 1.672 1.372v57.9c0 12.727 3.445 17.554 7.949 22.541a8 8 0 0 0 11.874-10.725z" fill="#fb4a59"/><path d="m370.046 45.075h-75.608a12.07 12.07 0 0 0 -11.366-8.169h-51.067a27.978 27.978 0 0 0 -55.36 0h-51.065a12.18 12.18 0 0 0 -11.48 8.169h-75.5a4 4 0 0 0 -4 4v445.925a4 4 0 0 0 4 4h331.446a4 4 0 0 0 4-4v-445.925a4 4 0 0 0 -4-4z" fill="#fcb44d"/><path d="m283.072 36.906h-51.067a27.978 27.978 0 0 0 -55.36 0h-51.065a12.183 12.183 0 0 0 -12.168 12.169v57.182a12.183 12.183 0 0 0 12.168 12.169h157.492a12.124 12.124 0 0 0 12.049-12.169v-57.182a12.124 12.124 0 0 0 -12.049-12.169z" fill="#8d9da7"/><path d="m345.419 69.7h-50.3v36.555a12.124 12.124 0 0 1 -12.049 12.169h-157.49a12.183 12.183 0 0 1 -12.168-12.169v-36.555h-50.18a4 4 0 0 0 -4 4v396.673a4 4 0 0 0 4 4h233.054a4 4 0 0 0 2.829-1.171l49.133-49.134a4 4 0 0 0 1.171-2.828v-347.54a4 4 0 0 0 -4-4z" fill="#eceeee"/><path d="m222.005 36.906h10a28.031 28.031 0 0 0 -32.728-23.456 28.03 28.03 0 0 1 22.728 23.456z" fill="#7e939e"/><path d="m349.419 421.24h-49.133a4 4 0 0 0 -4 4v49.133a4 4 0 0 0 2.829-1.171l49.133-49.134a4 4 0 0 0 1.171-2.828z" fill="#ccdadd"/><path d="m241.386 178.54h-19.186v-19.185a4 4 0 0 0 -4-4h-27.87a4 4 0 0 0 -4 4v19.185h-19.064a4 4 0 0 0 -4 4v27.871a4 4 0 0 0 4 4h19.064v19.189a4 4 0 0 0 4 4h27.87a4 4 0 0 0 4-4v-19.189h19.185a4 4 0 0 0 4-4v-27.871a4 4 0 0 0 -3.999-4z" fill="#fb4a59"/><g fill="#8d9da7"><path d="m237.061 287.485h-60.545a8 8 0 1 1 0-16h60.545a8 8 0 1 1 0 16z"/><path d="m304.935 322.2h-128.419a8 8 0 1 1 0-16h128.419a8 8 0 0 1 0 16z"/><path d="m237.061 355.479h-60.545a8 8 0 0 1 0-16h60.545a8 8 0 0 1 0 16z"/><path d="m304.935 390.2h-128.419a8 8 0 1 1 0-16h128.419a8 8 0 1 1 0 16z"/></g><rect fill="#23f1a8" height="50.718" rx="8" width="50.718" x="95.596" y="271.485"/><rect fill="#23f1a8" height="50.718" rx="8" width="50.718" x="95.596" y="339.479"/><path d="m213.2 159.355v19.185h9v-19.185a4 4 0 0 0 -4-4h-9a4 4 0 0 1 4 4z" fill="#f82f40"/><path d="m241.386 178.54h-9a4 4 0 0 1 4 4v27.871a4 4 0 0 1 -4 4h9a4 4 0 0 0 4-4v-27.871a4 4 0 0 0 -4-4z" fill="#f82f40"/><path d="m213.2 233.6a4 4 0 0 1 -4 4h9a4 4 0 0 0 4-4v-19.189h-9z" fill="#f82f40"/><path d="m138.314 271.485h-9a8 8 0 0 1 8 8v34.715a8 8 0 0 1 -8 8h9a8 8 0 0 0 8-8v-34.715a8 8 0 0 0 -8-8z" fill="#26d192"/><path d="m138.314 339.479h-9a8 8 0 0 1 8 8v34.721a8 8 0 0 1 -8 8h9a8 8 0 0 0 8-8v-34.721a8 8 0 0 0 -8-8z" fill="#26d192"/><path d="m204.266 49.2a8.109 8.109 0 1 0 -8.049-8.169 8.1 8.1 0 0 0 8.049 8.169z" fill="#748e99" fill-rule="evenodd"/><path d="m113.412 88.117v18.14a12.183 12.183 0 0 0 12.168 12.169h157.492a12.124 12.124 0 0 0 12.049-12.169v-18.14z" fill="#748e99"/><path d="m285.121 49.075v39.042h10v-39.042a12.124 12.124 0 0 0 -12.049-12.169h-10a12.124 12.124 0 0 1 12.049 12.169z" fill="#7e939e"/><path d="m285.121 88.117v18.14a12.124 12.124 0 0 1 -12.049 12.169h10a12.124 12.124 0 0 0 12.049-12.169v-18.14z" fill="#6a8993"/><path d="m370.046 45.075h-16a4 4 0 0 1 4 4v445.925a4 4 0 0 1 -4 4h16a4 4 0 0 0 4-4v-445.925a4 4 0 0 0 -4-4z" fill="#fb9927"/><path d="m333.419 73.7v347.54h16v-347.54a4 4 0 0 0 -4-4h-16a4 4 0 0 1 4 4z" fill="#d9e7eb"/><path d="m434.352 143.342v-16.423a15.893 15.893 0 0 0 -31.786 0v16.423z" fill="#8d9da7"/><path d="m418.459 111.027a15.793 15.793 0 0 0 -5 .818 15.911 15.911 0 0 1 10.893 15.074v16.423h10v-16.423a15.91 15.91 0 0 0 -15.893-15.892z" fill="#7e939e"/><path d="m462.508 175.043v57.9c0 18.288 8.392 21.639 13.608 22.034a8 8 0 0 0 -.785-9.688c-2.7-2.994-3.823-4.233-3.823-11.816v-57.9a17.424 17.424 0 0 0 -17.27-17.367l-5.769-.159a17.332 17.332 0 0 1 14.039 16.996z" fill="#f82f40"/><path d="m431.923 147.342v81.208h13v-81.208a4 4 0 0 0 -4-4h-13a4 4 0 0 1 4 4z" fill="#f82f40"/><path d="m444.923 384.84v-.047a71.6 71.6 0 0 1 -14.81 4.568l-18.158 35.733 2.94 5.77a4 4 0 0 0 3.564 2.184 4 4 0 0 0 3.564-2.188l22.464-44.208a4 4 0 0 0 .436-1.812z" fill="#f82f40"/><path d="m444.923 384.793v-156.243h-52.923v156.382c17.68 7.417 35.238 7.414 52.923-.139z" fill="#eceeee"/><path d="m444.923 384.793v-156.243h-13v156.29a4 4 0 0 1 -.434 1.812l-1.376 2.709a71.6 71.6 0 0 0 14.81-4.568z" fill="#d9e7eb"/></svg>