<svg id="Layer_1" height="512" viewBox="0 0 512 512" width="512" xmlns="http://www.w3.org/2000/svg" data-name="Layer 1"><path d="m463.521 382.6a243.034 243.034 0 1 0 -450.521-126.54c0 133.958 109.036 242.94 243.061 242.94a240.64 240.64 0 0 0 92.918-18.432 45.994 45.994 0 0 0 60.987 11.572 60.981 60.981 0 1 0 53.555-109.54z" fill="#c9f0fd"/><path d="m373.8 281.011a46.158 46.158 0 0 0 -46.166 46.046v105.027a196.076 196.076 0 0 1 -79.135 20.11c2.632.1 5.274.172 7.932.172a194.757 194.757 0 0 0 83.2-18.57v-106.739a46.146 46.146 0 0 1 40.158-45.643 46.1 46.1 0 0 0 -5.989-.403z" fill="#9ce6fb"/><path d="m437.368 256.432a194.553 194.553 0 0 1 -8.067 55.554 45.852 45.852 0 0 1 2.546 15.071v16.6a194.73 194.73 0 0 0 20.522-87.225c0-108.515-87.9-196.8-195.937-196.8-2.658 0-5.3.069-7.932.174 104.854 4.179 188.868 90.769 188.868 196.626z" fill="#9ce6fb"/><path d="m339.635 452.954v-19.154a194.757 194.757 0 0 1 -83.2 18.57c-108.519 0-196.8-87.895-196.8-195.934 0-108.515 88.281-196.8 196.8-196.8 108.042 0 195.937 88.284 195.937 196.8a194.73 194.73 0 0 1 -20.522 87.225v33.639q3.006-.3 6.091-.306a60.688 60.688 0 0 1 25.568 5.631 243.034 243.034 0 1 0 -450.509-126.565c0 133.958 109.036 242.94 243.061 242.94a240.639 240.639 0 0 0 92.845-18.4 45.728 45.728 0 0 1 -9.271-27.646z" fill="#64b9fc"/><g fill="#8d9da7"><path d="m256.061 89.149a8 8 0 0 0 8-8v-21.349c-2.533-.1-5.074-.163-7.629-.163-2.806 0-5.594.073-8.371.19v21.322a8 8 0 0 0 8 8z"/><path d="m161.676 108.573a8 8 0 1 0 13.859-7.995l-10.584-18.346q-7.093 3.741-13.841 8.026z"/><path d="m407.433 176.606a7.971 7.971 0 0 0 3.99-1.072l18.422-10.628q-3.731-7.1-8-13.855l-18.414 10.624a8 8 0 0 0 4.006 14.931z"/><path d="m422.851 256.06a8 8 0 0 0 8 8h21.356c.1-2.532.162-5.072.162-7.628 0-2.805-.073-5.594-.189-8.372h-21.329a8 8 0 0 0 -8 8z"/><path d="m164.907 429.844 10.628-18.422a8 8 0 1 0 -13.859-8l-10.623 18.418q6.747 4.275 13.854 8.004z"/><path d="m108.573 350.325a8 8 0 0 0 -8-13.86l-18.529 10.693q3.738 7.093 8.029 13.84z"/><path d="m89.15 256.06a8 8 0 0 0 -8-8h-21.328c-.116 2.778-.19 5.567-.19 8.372 0 2.556.065 5.1.163 7.628h21.355a8 8 0 0 0 8-8z"/><path d="m347.235 82.086-10.753 18.463a8 8 0 1 0 13.827 8.053l10.763-18.482q-6.738-4.292-13.837-8.034z"/><path d="m100.577 175.534a8 8 0 1 0 8-13.859l-18.318-10.566q-4.287 6.739-8.027 13.842z"/><path d="m264.061 452.2v-21.35a8 8 0 0 0 -16 0v21.327c2.777.116 5.565.189 8.371.189 2.555 0 5.096-.066 7.629-.166z"/></g><path d="m228.635 256.06a27.914 27.914 0 0 1 .151-2.877l-47.421 27.417a16.223 16.223 0 0 0 -5.915 21.874l.05.087a16.2 16.2 0 0 0 13.917 7.893 15.789 15.789 0 0 0 7.983-2.154l47.353-27.372a27.329 27.329 0 0 1 -16.118-24.868z" fill="#64b9fc"/><path d="m256.061 228.634a27.07 27.07 0 0 1 16.012 5.231v-77.153a16.013 16.013 0 1 0 -32.026 0v77.1a27.265 27.265 0 0 1 16.014-5.178z" fill="#64b9fc"/><path d="m234.664 273.092-47.326 27.356a15.786 15.786 0 0 1 -7.98 2.154 16.192 16.192 0 0 1 -4.107-.532c.07.132.125.268.2.4l.05.087a16.2 16.2 0 0 0 13.917 7.893 15.789 15.789 0 0 0 7.982-2.15l47.353-27.372a27.557 27.557 0 0 1 -10.089-7.836z" fill="#4faded"/><path d="m256.061 140.7a15.885 15.885 0 0 0 -5.5.994 16.025 16.025 0 0 1 10.512 15.019v72.405a27.123 27.123 0 0 1 11 4.748v-77.154a16.03 16.03 0 0 0 -16.012-16.012z" fill="#4faded"/><path d="m256.061 228.634a27.366 27.366 0 1 0 27.305 27.426 27.457 27.457 0 0 0 -27.305-27.426z" fill="#8d9da7"/><path d="m256.061 228.634a27.475 27.475 0 0 0 -4.51.378 27.371 27.371 0 0 1 0 53.978 27.361 27.361 0 1 0 4.51-54.356z" fill="#7e939e"/><path d="m237.386 236-18.193-10.427a8 8 0 0 0 -7.955 13.882l18.117 10.383a27.427 27.427 0 0 1 8.031-13.838z" fill="#fb4a59"/><path d="m328.772 288.773-46.106-26.591a27.312 27.312 0 0 1 -8.012 13.85l46.124 26.6a8 8 0 0 0 7.994-13.86z" fill="#fb4a59"/><path d="m437.938 377a61 61 0 1 0 61.062 61.058 61.072 61.072 0 0 0 -61.062-61.058z" fill="#23f1a8"/><path d="m437.938 377a61.009 61.009 0 0 0 -8.991.669 60.992 60.992 0 0 1 0 120.667 61.005 61.005 0 1 0 8.991-121.336z" fill="#26d192"/><path d="m377 438.058a61.1 61.1 0 0 1 54.847-60.758v-50.243a46.106 46.106 0 0 0 -92.212 0v125.9a46.128 46.128 0 0 0 70.3 39.2 60.994 60.994 0 0 1 -32.935-54.099z" fill="#fcb44d"/><path d="m431.847 377.287v.015c.032 0 .065 0 .1-.008z" fill="#fcb44d"/><path d="m482 256.06a241.32 241.32 0 0 1 -32.932 121.971 60.547 60.547 0 0 1 14.438 4.6 243.062 243.062 0 0 0 -207.445-369.631c-2.863 0-5.715.067-8.561.165a243.041 243.041 0 0 1 234.5 242.895z" fill="#4faded"/><path d="m400.4 390.006h-60.765v62.948a46.128 46.128 0 0 0 70.3 39.2 60.958 60.958 0 0 1 -9.535-102.148z" fill="#fb4a59"/><path d="m475.06 389.622-85.472 85.472a61.425 61.425 0 0 0 11.312 11.314l85.472-85.472a61.611 61.611 0 0 0 -11.312-11.314z" fill="#1eb07c"/><path d="m409.936 492.159a60.958 60.958 0 0 1 -9.536-102.153h-11.884a68.847 68.847 0 0 0 -.7 95.285 6.556 6.556 0 0 1 -2.435 10.577 45.724 45.724 0 0 1 -8.138 2.326 45.719 45.719 0 0 0 32.176-5.773 3.619 3.619 0 0 0 .517-.262z" fill="#f82f40"/><path d="m385.68 281.011a46.044 46.044 0 0 0 -8.489.8 46.145 46.145 0 0 1 37.655 45.248v37.692a12.481 12.481 0 0 1 -7 11.226 69.111 69.111 0 0 0 -18.967 13.647h11.994a60.564 60.564 0 0 1 30.973-12.32v-50.247a46.158 46.158 0 0 0 -46.166-46.046z" fill="#fb9927"/><path d="m339.635 452.954v-19.154q-5.893 2.776-12 5.156v14a45.665 45.665 0 0 0 8.051 25.93 241.523 241.523 0 0 1 -88.186 19.947c2.843.1 5.694.167 8.561.167a240.639 240.639 0 0 0 92.845-18.4h.008a45.69 45.69 0 0 1 -9.279-27.646z" fill="#4faded"/></svg>