<svg id="Layer_1" height="512" viewBox="0 0 512 512" width="512" xmlns="http://www.w3.org/2000/svg" data-name="Layer 1"><path d="m450.344 412.836c-.55-19.268-1.695-59.363-39.218-70.98l-15.326-4.731a42.576 42.576 0 0 0 -42.437-41.013h-46.813v-16.312a87.794 87.794 0 0 0 36.51-60.342h11.147a30.851 30.851 0 0 0 13.135-58.737l7.288-54.66c2.81-21.307-4.027-42.6-19.249-59.963a98.71 98.71 0 0 0 -73.254-33.098h-60.065c-29.616 0-47.429 11.524-54.406 35.214a75.724 75.724 0 0 0 -29.656 75.341l6.782 37.084a30.83 30.83 0 0 0 13.01 58.817h11.146a87.817 87.817 0 0 0 36.511 60.377v16.279h-46.816a42.642 42.642 0 0 0 -42.558 41.05l-15.2 4.694c-37.86 11.722-38.811 53.264-39.217 71l-2.046 82.044a4 4 0 0 0 4 4.1h384.777a4 4 0 0 0 4-4.1zm-291.711-100.724h38.582l-64.315 19.855a26.644 26.644 0 0 1 25.733-19.855zm220.335 19.816-64.184-19.816h38.582a26.545 26.545 0 0 1 25.602 19.816z" fill="#e9f1f3"/><path d="m116.036 338.71v67.682a27.221 27.221 0 1 0 16 0v-67.682a26.628 26.628 0 0 1 26.6-26.6h39.678l-.048-.323 7.186-2.219v-13.456h-46.819a42.646 42.646 0 0 0 -42.597 42.598z" fill="#8d9da7"/><path d="m339.634 133.161c-7.2-14.21-20.207-14.2-33.884-14.206-6.855.009-14.65 0-22.83-1.6-16.725-3.383-35.182-10.638-56.433-22.183-15.948-8.617-27.559-5.5-34.488-1.365-16.346 9.747-23.791 34.211-23.791 52.816v61.507a87.688 87.688 0 0 0 37.241 71.705v29.735l-7.186 2.219 7.25 48.864a153.235 153.235 0 0 0 100.854 0l7.255-48.9-7.072-2.183v-29.77a87.653 87.653 0 0 0 37.241-71.67v-52.98c0-8.013-2.206-18.238-4.157-21.989z" fill="#ffd4cf"/><path d="m339.634 133.161c-7.2-14.21-20.207-14.2-33.884-14.206-1.605 0-3.267 0-4.968-.018a24.571 24.571 0 0 1 7.852 9.552c1.951 3.858 4.157 14.377 4.157 22.621v54.5c0 44.368-31.327 81.359-72.45 88.86a87.882 87.882 0 0 0 103.45-86.341v-52.979c0-8.013-2.206-18.238-4.157-21.989z" fill="#f9c9c5"/><path d="m124.036 459.633a27.221 27.221 0 1 1 27.221-27.221 27.251 27.251 0 0 1 -27.221 27.221zm0-38.442a11.221 11.221 0 1 0 11.221 11.221 11.233 11.233 0 0 0 -11.221-11.221z" fill="#6a8993"/><path d="m144.782 160.639a30.706 30.706 0 0 1 13.01-2.882h10.416v-11.136c0-18.605 7.445-43.069 23.791-52.816 6.929-4.133 18.54-7.252 34.488 1.365 21.251 11.545 39.708 18.8 56.433 22.183 8.18 1.605 15.975 1.611 22.83 1.6 13.677.01 26.686 0 33.884 14.206 1.951 3.751 4.157 13.976 4.157 21.989v2.607h10.416a30.5 30.5 0 0 1 13.135 2.962l7.288-54.66c2.81-21.307-4.027-42.6-19.249-59.963a98.71 98.71 0 0 0 -73.254-33.094h-60.065c-29.616 0-47.429 11.524-54.406 35.214a75.724 75.724 0 0 0 -29.656 75.341z" fill="#748e99"/><path d="m168.208 208.128v-50.371h-10.416a30.85 30.85 0 1 0 0 61.7h11.146a88.23 88.23 0 0 1 -.73-11.329z" fill="#f9c9c5"/><path d="m354.207 157.757h-10.416v50.371a88.05 88.05 0 0 1 -.731 11.328h11.147a30.85 30.85 0 0 0 0-61.7z" fill="#f9c9c5"/><path d="m282.127 13h-26.081c1.911.009 63.076 1.126 62.953 105.937 0 .185.007.365.008.55 8.442 1.051 15.827 4.2 20.627 13.674 1.951 3.751 4.157 13.976 4.157 21.989v2.607h10.416a30.5 30.5 0 0 1 13.135 2.962l7.288-54.66c2.81-21.307-4.027-42.6-19.249-59.963a98.71 98.71 0 0 0 -73.254-33.096z" fill="#6a8993"/><path d="m313.042 499 30.258-74.674a3.994 3.994 0 0 0 -.087-3.022l-11.065-25.031 19.605-14.2a4 4 0 0 0 1.653-3.211l-.8-55.073-38.984-12.036-27.781 187.247z" fill="#d1d9db"/><path d="m198.264 311.789-38.991 12.037-.795 55.036a4 4 0 0 0 1.653 3.211l19.6 14.2-11.061 25.027a4 4 0 0 0 -.087 3.022l30.254 74.678h27.2z" fill="#d1d9db"/><path d="m306.367 360.653a153.235 153.235 0 0 1 -100.854 0l20.526 138.347h59.8z" fill="#64b9fc"/><path d="m395.843 383.915v-45.205a42.586 42.586 0 0 0 -42.477-42.6h-46.816v13.46l7.072 2.183-.054.359h39.8a26.568 26.568 0 0 1 26.477 26.6v45.211a34.243 34.243 0 0 0 -26.188 33.234v55.743a8 8 0 0 0 8 8h9.01a8 8 0 0 0 0-16h-1.01v-47.745a18.249 18.249 0 0 1 36.5 0v47.745h-1.01a8 8 0 0 0 0 16h9.01a8 8 0 0 0 8-8v-55.745a34.267 34.267 0 0 0 -26.314-33.24z" fill="#8d9da7"/><path d="m450.344 412.836c-.55-19.268-1.695-59.363-39.218-70.98l-10.238-3.156c19.125 18.43 19.958 49.486 20.4 66.2l.117 5.144a34.041 34.041 0 0 1 .752 7.113v25.832l1.175 51.536a4.593 4.593 0 0 1 -1.136 3.159 3.841 3.841 0 0 1 -2.868 1.316h29.061a4 4 0 0 0 4-4.1z" fill="#d1d9db"/></svg>