<svg id="Layer_1" height="512" viewBox="0 0 512 512" width="512" xmlns="http://www.w3.org/2000/svg" data-name="Layer 1"><path d="m437.782 392.72a8 8 0 0 0 8-8v-367.72a4 4 0 0 0 -4-4h-334.444a41.107 41.107 0 0 0 -41.12 41v367.72c0 .051.013.1.015.148.094 24.811 20.991 44.972 45.911 44.972h26.428v28.16a4 4 0 0 0 6.03 3.447l32.448-19.107 32.45 19.107a4 4 0 0 0 6.027-3.447v-28.16h222.255a8 8 0 0 0 0-16h-5.182v-58.12z" fill="#68dbf9"/><path d="m82.311 424.061a29.081 29.081 0 0 1 29.027-31.341h326.444a8 8 0 0 0 0-16h-308.34v-363.72h-22.1a41.107 41.107 0 0 0 -41.12 41v367c-.4 25.207 20.711 45.836 45.921 45.836h26.428v-16h-26.647c-15.282.004-28.406-11.536-29.613-26.775z" fill="#64b9fc"/><path d="m437.782 450.84h-222.255v16h222.255a8 8 0 0 0 0-16z" fill="#64b9fc"/><path d="m111.338 392.72a29.081 29.081 0 0 0 -29.027 31.341c1.207 15.234 14.331 26.779 29.613 26.779h26.648v-21.12h76.955v21.12h217.073v-58.12z" fill="#eceeee"/><path d="m102.843 293.732h26.6v-16h-26.6c-14.221 0-27.135 6.321-36.622 16.559v39.909c.984-22.509 17.034-40.468 36.622-40.468z" fill="#4faded"/><path d="m66.219 122.738v36.022a36.713 36.713 0 0 1 36.624-34.893h26.6v-16h-26.6a52.479 52.479 0 0 0 -36.624 14.871z" fill="#4faded"/><path d="m285.612 70.9a69.411 69.411 0 1 0 69.351 69.471 69.55 69.55 0 0 0 -69.351-69.471z" fill="#f0f7ff"/><path d="m285.612 70.9c-2.024 0-4.024.106-6 .276a69.4 69.4 0 0 1 0 138.27c1.981.17 3.981.276 6 .276a69.411 69.411 0 0 0 0-138.822z" fill="#d9e7eb"/><path d="m322.732 122.439h-19.185v-19.186a4 4 0 0 0 -4-4h-27.87a4 4 0 0 0 -4 4v19.186h-19.185a4 4 0 0 0 -4 4v27.75a4 4 0 0 0 4 4h19.185v19.185a4 4 0 0 0 4 4h27.87a4 4 0 0 0 4-4v-19.185h19.185a4 4 0 0 0 4-4v-27.75a4 4 0 0 0 -4-4z" fill="#fb4a59"/><path d="m293.547 103.253v19.186h10v-19.186a4 4 0 0 0 -4-4h-10a4 4 0 0 1 4 4z" fill="#f82f40"/><path d="m293.547 177.374a4 4 0 0 1 -4 4h10a4 4 0 0 0 4-4v-19.185h-10z" fill="#f82f40"/><path d="m322.732 122.439h-10a4 4 0 0 1 4 4v27.75a4 4 0 0 1 -4 4h10a4 4 0 0 0 4-4v-27.75a4 4 0 0 0 -4-4z" fill="#f82f40"/><g fill="#f0f7ff"><path d="m328.859 266.823h-86.494a8 8 0 0 1 0-16h86.494a8 8 0 1 1 0 16z"/><path d="m377.512 301.42h-183.8a8 8 0 0 1 0-16h183.8a8 8 0 0 1 0 16z"/><path d="m328.859 334.817h-86.494a8 8 0 0 1 0-16h86.494a8 8 0 0 1 0 16z"/></g><path d="m441.782 13h-25.182a8 8 0 0 1 8 8v347.72a8 8 0 0 1 -8 8h21.178a8 8 0 0 1 8 8v-367.72a4 4 0 0 0 -3.996-4z" fill="#50d1ef"/><path d="m138.572 429.72v65.28a4 4 0 0 0 6.03 3.447l32.448-19.107 32.45 19.107a4 4 0 0 0 6.027-3.447v-65.28z" fill="#fb4a59"/><path d="m411.425 392.72h21.179v58.121h-21.179z" fill="#d9e7eb"/><path d="m432.6 413.72h-322.343a8 8 0 0 0 0 16h322.343z" fill="#ccdadd"/><path d="m138.572 429.72v9.022h52.441a8.514 8.514 0 0 1 8.514 8.515v45.319l9.971 5.871a4 4 0 0 0 6.029-3.447v-65.28z" fill="#f82f40"/></svg>