<svg id="Layer_1" height="512" viewBox="0 0 512 512" width="512" xmlns="http://www.w3.org/2000/svg" data-name="Layer 1"><path d="m475.84 53.964h-54.864v-15.821a25.144 25.144 0 0 0 -50.287 0v15.821h-89.545v-15.821a25.144 25.144 0 0 0 -50.287 0v15.821h-89.545v-15.821a25.144 25.144 0 0 0 -50.287 0v15.821h-54.864a16.593 16.593 0 0 0 -16.374 16.374v412.288a16.393 16.393 0 0 0 16.374 16.374h439.679a16.392 16.392 0 0 0 16.373-16.374v-412.288a16.393 16.393 0 0 0 -16.373-16.374z" fill="#eceeee"/><path d="m475.84 53.964h-54.864v23.942a25.172 25.172 0 0 1 -25.143 25.143 25.481 25.481 0 0 1 -25.144-25.143v-23.942h-89.545v23.942a25.144 25.144 0 0 1 -50.287 0v-23.942h-89.545v23.942a25.144 25.144 0 0 1 -50.287 0v-23.942h-54.864a16.593 16.593 0 0 0 -16.374 16.374v93.738h472.426v-93.738a16.393 16.393 0 0 0 -16.373-16.374z" fill="#fb4a59"/><path d="m155.812 221.907h-19.186v-19.065a4 4 0 0 0 -4-4h-27.87a4 4 0 0 0 -4 4v19.065h-19.186a4 4 0 0 0 -4 4v27.871a4 4 0 0 0 4 4h19.186v19.185a4 4 0 0 0 4 4h27.87a4 4 0 0 0 4-4v-19.185h19.186a4 4 0 0 0 4-4v-27.871a4 4 0 0 0 -4-4z" fill="#fb4a59"/><path d="m126.626 276.963a4 4 0 0 1 -4 4h10a4 4 0 0 0 4-4v-19.185h-10z" fill="#f82f40"/><path d="m126.626 202.842v19.065h10v-19.065a4 4 0 0 0 -4-4h-10a4 4 0 0 1 4 4z" fill="#f82f40"/><path d="m155.812 221.907h-10a4 4 0 0 1 4 4v27.871a4 4 0 0 1 -4 4h10a4 4 0 0 0 4-4v-27.871a4 4 0 0 0 -4-4z" fill="#f82f40"/><rect fill="#fb4a59" height="40.195" rx="4" width="50.166" x="225.932" y="198.842"/><rect fill="#fb4a59" height="40.195" rx="4" width="50.165" x="305.099" y="198.842"/><rect fill="#fb4a59" height="40.195" rx="4" width="50.166" x="384.265" y="198.842"/><g fill="#64b9fc"><rect height="40.315" rx="4" width="50.166" x="225.932" y="271.161"/><rect height="40.315" rx="4" width="50.165" x="305.099" y="271.161"/><rect height="40.315" rx="4" width="50.166" x="384.265" y="271.161"/><rect height="40.315" rx="4" width="50.166" x="225.932" y="343.6"/><rect height="40.315" rx="4" width="50.165" x="305.099" y="343.6"/><rect height="40.315" rx="4" width="50.166" x="384.265" y="343.6"/><rect height="40.315" rx="4" width="50.166" x="225.932" y="416.039"/><rect height="40.315" rx="4" width="50.165" x="305.099" y="416.039"/></g><path d="m272.1 198.842h-13a4 4 0 0 1 4 4v32.195a4 4 0 0 1 -4 4h13a4 4 0 0 0 4-4v-32.195a4 4 0 0 0 -4-4z" fill="#f82f40"/><path d="m351.264 198.842h-13a4 4 0 0 1 4 4v32.195a4 4 0 0 1 -4 4h13a4 4 0 0 0 4-4v-32.195a4 4 0 0 0 -4-4z" fill="#f82f40"/><path d="m430.431 198.842h-13a4 4 0 0 1 4 4v32.195a4 4 0 0 1 -4 4h13a4 4 0 0 0 4-4v-32.195a4 4 0 0 0 -4-4z" fill="#f82f40"/><path d="m272.1 271.161h-13a4 4 0 0 1 4 4v32.315a4 4 0 0 1 -4 4h13a4 4 0 0 0 4-4v-32.315a4 4 0 0 0 -4-4z" fill="#4faded"/><path d="m351.264 271.161h-13a4 4 0 0 1 4 4v32.315a4 4 0 0 1 -4 4h13a4 4 0 0 0 4-4v-32.315a4 4 0 0 0 -4-4z" fill="#4faded"/><path d="m430.431 271.161h-13a4 4 0 0 1 4 4v32.315a4 4 0 0 1 -4 4h13a4 4 0 0 0 4-4v-32.315a4 4 0 0 0 -4-4z" fill="#4faded"/><path d="m272.1 343.6h-13a4 4 0 0 1 4 4v32.315a4 4 0 0 1 -4 4h13a4 4 0 0 0 4-4v-32.315a4 4 0 0 0 -4-4z" fill="#4faded"/><path d="m351.264 343.6h-13a4 4 0 0 1 4 4v32.315a4 4 0 0 1 -4 4h13a4 4 0 0 0 4-4v-32.315a4 4 0 0 0 -4-4z" fill="#4faded"/><path d="m430.431 343.6h-13a4 4 0 0 1 4 4v32.315a4 4 0 0 1 -4 4h13a4 4 0 0 0 4-4v-32.315a4 4 0 0 0 -4-4z" fill="#4faded"/><path d="m272.1 416.039h-13a4 4 0 0 1 4 4v32.315a4 4 0 0 1 -4 4h13a4 4 0 0 0 4-4v-32.315a4 4 0 0 0 -4-4z" fill="#4faded"/><path d="m351.264 416.039h-13a4 4 0 0 1 4 4v32.315a4 4 0 0 1 -4 4h13a4 4 0 0 0 4-4v-32.315a4 4 0 0 0 -4-4z" fill="#4faded"/><path d="m116.528 339.251h-34.958a8 8 0 0 1 0-16h34.958a8 8 0 1 1 0 16z" fill="#8d9da7"/><path d="m155.812 373.848h-74.242a8 8 0 0 1 0-16h74.242a8 8 0 1 1 0 16z" fill="#8d9da7"/><path d="m116.528 422.381h-34.958a8 8 0 0 1 0-16h34.958a8 8 0 1 1 0 16z" fill="#8d9da7"/><path d="m155.812 457.1h-74.242a8 8 0 0 1 0-16h74.242a8 8 0 1 1 0 16z" fill="#8d9da7"/><path d="m475.84 53.964h-37a16.393 16.393 0 0 1 16.373 16.374v93.738h37v-93.738a16.393 16.393 0 0 0 -16.373-16.374z" fill="#f82f40"/><path d="m487.213 415.2h-62.429a16.451 16.451 0 0 0 -16.493 16.373v62.427a5 5 0 0 1 -5 5h9a4 4 0 0 0 2.827-1.169l75.922-75.8a3.99 3.99 0 0 0 1.162-2.951h.01v-8.86a5 5 0 0 1 -4.999 4.98z" fill="#ccdadd"/><path d="m455.213 164.076v251.124h32a5 5 0 0 0 5-4.981v8.86h-.01a3.99 3.99 0 0 1 -1.162 2.951l-35.828 35.77v24.828a16.392 16.392 0 0 1 -16.373 16.372h37a16.392 16.392 0 0 0 16.373-16.374v-318.55z" fill="#d9e7eb"/><path d="m141.312 38.143v39.763a25.144 25.144 0 0 1 -50.287 0v-39.763a25.144 25.144 0 0 1 50.287 0zm114.688-25.143a25.172 25.172 0 0 0 -25.143 25.143v39.763a25.144 25.144 0 0 0 50.287 0v-39.763a25.172 25.172 0 0 0 -25.144-25.143zm139.833 0a25.172 25.172 0 0 0 -25.144 25.143v39.763a25.481 25.481 0 0 0 25.144 25.143 25.172 25.172 0 0 0 25.143-25.143v-39.763a25.172 25.172 0 0 0 -25.143-25.143z" fill="#748e99"/><path d="m116.168 13a25.008 25.008 0 0 0 -9 1.672 25.18 25.18 0 0 1 16.144 23.471v39.763a25.179 25.179 0 0 1 -16.144 23.471 25.131 25.131 0 0 0 34.144-23.471v-39.763a25.172 25.172 0 0 0 -25.144-25.143z" fill="#6a8993"/><path d="m256 13a25.008 25.008 0 0 0 -9 1.672 25.18 25.18 0 0 1 16.144 23.471v39.763a25.179 25.179 0 0 1 -16.144 23.471 25.131 25.131 0 0 0 34.144-23.471v-39.763a25.172 25.172 0 0 0 -25.144-25.143z" fill="#6a8993"/><path d="m395.833 13a25 25 0 0 0 -9 1.672 25.181 25.181 0 0 1 16.143 23.471v39.763a25.179 25.179 0 0 1 -16.059 23.438 24.338 24.338 0 0 0 8.916 1.705 25.172 25.172 0 0 0 25.143-25.143v-39.763a25.172 25.172 0 0 0 -25.143-25.143z" fill="#6a8993"/></svg>