<svg clip-rule="evenodd" fill-rule="evenodd" height="512" image-rendering="optimizeQuality" shape-rendering="geometricPrecision" text-rendering="geometricPrecision" viewBox="0 0 173.397 173.397" width="512" xmlns="http://www.w3.org/2000/svg"><g id="Layer_x0020_1"><g id="_219708080" fill="#1865c1"><path id="_219708848" d="m141.869 80.4452h15.9935c-6.6892-5.8352-13.4797-11.7191-20.0744-17.4333-15.5232-13.4524-31.5749-27.362-46.9942-41.2202-1.081-.9736-2.5414-1.515-4.1053-1.5248-1.5454.0097-3.0057.5513-4.087 1.5248-15.4161 13.8567-31.4649 27.765-46.9881 41.2154-6.5947 5.7156-13.3881 11.6015-20.0806 17.4384l15.9938-.0003 54.2058-47.3844c.553-.4831 1.3776-.4831 1.9304.0001zm19.9004 2.9326h-20.4502c-.3543 0-.6965-.1285-.9653-.3622l-53.656-46.9036-53.6562 46.9032c-.2686.2337-.611.3627-.9654.3627l-20.4499-.0001c-.6111 0-1.1579-.379-1.3717-.9508-.2167-.5722-.055-1.2173.4062-1.6192 7.6396-6.6776 15.4652-13.4587 23.0313-20.0168 15.5142-13.4421 31.5535-27.3412 46.9484-41.1802 1.6192-1.4539 3.7662-2.2619 6.048-2.2759 2.3002.0139 4.4474.8222 6.0663 2.2756 15.3983 13.8407 31.4405 27.7417 46.9545 41.1851 7.5664 6.5564 15.3888 13.3364 23.0251 20.0122.4613.4016.6232 1.047.4094 1.6192-.2169.5718-.7637.9509-1.3745.9508z"/><path id="_219708728" d="m76.2729 156.062c-.8093 0-1.4662-.6564-1.4662-1.4659l.0002-39.9621c0-6.2257-5.0646-11.2904-11.2898-11.2904l-3.4178-.0001c-6.2253 0-11.2898 5.0649-11.2898 11.2905v39.9621c0 .8093-.6568 1.4662-1.4662 1.4662-.8094-.0003-1.4662-.6567-1.4662-1.4662l.0001-39.9621c0-7.8425 6.3809-14.2228 14.2219-14.2228h3.418c7.8442 0 14.2219 6.3804 14.2219 14.2228l.0002 39.9621c0 .8093-.6538 1.4662-1.4663 1.4659z"/><path id="_219709160" d="m93.2685 135.725h31.3183v-32.3819h-31.3183zm32.7846 2.9322h-34.2509c-.8093 0-1.4662-.6565-1.4662-1.4659l.0002-35.3142c0-.8095.6565-1.4662 1.466-1.4662l34.2509-.0001c.8093 0 1.4659.6568 1.4659 1.4666v35.3139c0 .8092-.6567 1.4662-1.4659 1.4659z"/><path id="_219709064" d="m108.929 138.657c-.8092 0-1.4661-.6565-1.4661-1.4659l.0001-35.3142c0-.8095.6566-1.4662 1.466-1.4662.8096-.0001 1.4663.6567 1.4663 1.4665v35.3139c0 .8092-.6568 1.4662-1.4663 1.4659z"/><path id="_219709016" d="m126.053 121h-34.2509c-.8093 0-1.4662-.6562-1.4662-1.4659.0002-.81.6567-1.4659 1.4662-1.4659l34.2509-.0001c.8093 0 1.4659.6562 1.4659 1.466 0 .8096-.6567 1.4662-1.4659 1.4659z"/><path id="_219709232" d="m67.8761 133.351c-.8096 0-1.4663-.6565-1.4663-1.4672l.0001-7.0199c0-.81.6565-1.4662 1.466-1.4662.8095-.0001 1.4662.6564 1.4662 1.4662v7.0197c0 .8107-.6568 1.4677-1.466 1.4674z"/><path id="_219708296" d="m86.6982 57.2597c-6.8116 0-12.3528 5.5412-12.3528 12.3516 0 6.8103 5.541 12.3514 12.3527 12.3514 6.8116-.0003 12.3525-5.541 12.3525-12.3514.0002-6.8104-5.5409-12.3514-12.3524-12.3516zm0 27.6349c-8.4274 0-15.2851-6.8559-15.2851-15.2833.0001-8.4276 6.8574-15.2834 15.285-15.2834 8.4277-.0001 15.2818 6.8559 15.2818 15.2834.0001 8.4274-6.8544 15.2834-15.2817 15.2833z"/><path id="_219708272" d="m47.1387 52.5389c-.8124 0-1.4662-.6562-1.4662-1.4659v-19.4946c0-.8096.6536-1.4661 1.4661-1.4661.8098-.0002 1.4662.6565 1.4662 1.4662l.0002 19.4944c0 .8096-.6569 1.4662-1.4663 1.466zm-17.866 15.4911c-.8096 0-1.4663-.6564-1.4663-1.4663v-34.9853c0-.8096.6536-1.4661 1.4661-1.4661.8098-.0006 1.4663.6565 1.4663 1.4662l.0002 34.9851c0 .8097-.657 1.4664-1.4663 1.4664z"/><path id="_219707912" d="m28.1335 30.1121h20.1416v-5.9311h-20.1416zm20.8625 2.9326h-21.5834c-1.2189 0-2.2117-.9915-2.2117-2.2106v-7.3748c0-1.2189.9927-2.2103 2.2114-2.2103l21.5837-.0003c1.2186 0 2.2113.9918 2.2113 2.2108l.0001 7.3746c0 1.2189-.9929 2.2106-2.2114 2.2106z"/><path id="_219708632" d="m141.32 156.062h-109.243c-.8096 0-1.4663-.6564-1.4663-1.4659v-72.6846c0-.8096.6567-1.466 1.4661-1.466.8098-.0003 1.4663.6564 1.4663 1.4661l.0002 71.2182h106.311v-71.2183c0-.8096.6564-1.466 1.4658-1.466.8097-.0003 1.4662.6564 1.4662 1.4661l.0002 72.6845c0 .8093-.6569 1.4662-1.4663 1.4659z"/></g><path d="m90.336 137.191.0001-17.6404c-.0001-.0058-.0001-.0115-.0001-.0173 0-.0057 0-.0113.0001-.017l.0001-17.6395c0-.8095.6565-1.4662 1.466-1.4662h17.1268l17.1241-.0001c.8093 0 1.4659.6568 1.4659 1.4666v17.6562 17.6577c0 .8092-.6567 1.4662-1.4659 1.4659h-17.123c-.0004 0-.0007 0-.0011 0h-17.1268c-.8093 0-1.4662-.6565-1.4662-1.4659zm-12.5968 15.9385h62.1144v-70.5518l-53.1554-46.466-53.1553 46.4653.0002 70.5525h12.334l.0001-38.4958c0-7.8425 6.3809-14.2228 14.2219-14.2228h3.418c7.8442 0 14.2219 6.3804 14.2219 14.2228zm8.959-68.2352c-8.4274 0-15.2851-6.8559-15.2851-15.2833.0001-8.4276 6.8574-15.2834 15.285-15.2834 8.4277-.0001 15.2818 6.8559 15.2818 15.2834.0001 8.4274-6.8544 15.2834-15.2817 15.2833z" fill="#83dbf2"/><g fill="#e7e7e8"><path d="m74.8067 153.13.0002-38.4958c0-6.2257-5.0646-11.2904-11.2898-11.2904l-3.4178-.0001c-6.2253 0-11.2898 5.0649-11.2898 11.2905v38.4958zm-8.3969-21.2455.0001-7.0199c0-.81.6565-1.4662 1.466-1.4662.8095-.0001 1.4662.6564 1.4662 1.4662v7.0197c0 .8107-.6568 1.4677-1.466 1.4674-.8096 0-1.4663-.6565-1.4663-1.4672z"/><path d="m74.3454 69.6113c0 6.8103 5.541 12.3514 12.3527 12.3514 6.8116-.0003 12.3525-5.541 12.3525-12.3514.0002-6.8104-5.5409-12.3514-12.3524-12.3516-6.8116 0-12.3528 5.5412-12.3528 12.3516z"/><path d="m93.2685 103.343v14.725h14.1945v-14.725z"/><path d="m107.463 121h-14.1945v14.725h14.1945z"/><path d="m110.395 121v14.725h14.192v-14.725z"/><path d="m110.395 118.068h14.192v-14.725h-14.192z"/><path d="m87.6632 33.0609 54.2061 47.3843h15.9935c-6.6892-5.8352-13.4797-11.7191-20.0744-17.4333-15.5232-13.4524-31.5749-27.362-46.9942-41.2202-1.081-.9736-2.5414-1.515-4.1053-1.5248-1.5454.0097-3.0057.5513-4.087 1.5248-11.2984 10.1556-22.9367 20.3388-34.4589 30.3493-.0282.0265-.0575.052-.0878.0762-4.1697 3.6225-8.324 7.2223-12.4414 10.7899-1.7725 1.5362-3.5594 3.0848-5.3548 4.6414-.0174.0158-.0353.0313-.0534.0463-4.8671 4.2197-9.7965 8.4982-14.6724 12.7507l15.9938-.0003 54.2058-47.3844c.553-.4831 1.3776-.4831 1.9304.0001z"/></g><path d="m45.6725 50.4024v-17.3577h-14.9337l.0002 30.3064c.9882-.8567 1.973-1.7103 2.9535-2.5601 3.9655-3.4359 7.9654-6.9016 11.98-10.3886z" fill="#83dbf2"/><path d="m29.2725 30.1123h17.8661l1.1365-.0002v-5.9311h-20.1416v5.9311z" fill="#e7e7e8"/></g></svg>