<svg id="Layer_1" height="512" viewBox="0 0 512 512" width="512" xmlns="http://www.w3.org/2000/svg" data-name="Layer 1"><path d="m491.13 474.715h-16.039v-276.707a12.457 12.457 0 0 0 8.51-11.8v-19.733a12.459 12.459 0 0 0 -12.445-12.445h-102.313v-40.059a12.34 12.34 0 0 0 8.391-11.671v-19.855a12.34 12.34 0 0 0 -12.327-12.326h-37.547v-44.639a3.936 3.936 0 0 0 -3.935-3.936h-134.85a3.936 3.936 0 0 0 -3.935 3.936v44.639h-37.548a12.339 12.339 0 0 0 -12.326 12.326v19.855a12.339 12.339 0 0 0 8.391 11.671v40.059h-102.313a12.459 12.459 0 0 0 -12.444 12.445v19.737a12.457 12.457 0 0 0 8.51 11.8v276.703h-16.04a7.871 7.871 0 0 0 0 15.741h470.26a7.871 7.871 0 0 0 0-15.741z" fill="#edf4ff"/><path d="m475.091 474.715v-276.707a12.353 12.353 0 0 1 -3.935.648h-102.313v276.059z" fill="#68dbf9"/><path d="m143.157 474.715v-276.059h-102.313a12.353 12.353 0 0 1 -3.935-.648v276.707z" fill="#68dbf9"/><path d="m471.156 154.03h-102.313v44.626h102.313a12.458 12.458 0 0 0 12.444-12.444v-19.737a12.459 12.459 0 0 0 -12.444-12.445z" fill="#8d9da7"/><path d="m40.844 154.03h102.313v44.626h-102.313a12.458 12.458 0 0 1 -12.444-12.444v-19.737a12.459 12.459 0 0 1 12.444-12.445z" fill="#8d9da7"/><path d="m128.4 154.03h14.757v44.626h-14.757z" fill="#7e939e"/><path d="m471.156 154.03h-15.741a12.459 12.459 0 0 1 12.445 12.445v19.737a12.458 12.458 0 0 1 -12.445 12.444h15.741a12.458 12.458 0 0 0 12.444-12.444v-19.737a12.459 12.459 0 0 0 -12.444-12.445z" fill="#7e939e"/><path d="m200.595 367.543h110.81v107.172h-110.81z" fill="#68dbf9"/><path d="m314.915 336.154h-117.83a9.324 9.324 0 0 0 -9.372 9.253v12.764a9.382 9.382 0 0 0 9.372 9.372h117.83a9.382 9.382 0 0 0 9.372-9.372v-12.764a9.213 9.213 0 0 0 -9.372-9.253z" fill="#8d9da7"/><path d="m314.915 336.154h-11.805a9.213 9.213 0 0 1 9.371 9.253v12.764a9.382 9.382 0 0 1 -9.371 9.372h11.805a9.382 9.382 0 0 0 9.372-9.372v-12.764a9.213 9.213 0 0 0 -9.372-9.253z" fill="#7e939e"/><path d="m248.189 367.543h15.741v107.172h-15.741z" fill="#50d1ef"/><path d="m491.13 490.456h-470.26a7.871 7.871 0 0 1 0-15.741h470.26a7.871 7.871 0 0 1 0 15.741z" fill="#8d9da7"/><path d="m475.091 474.715v-276.707a12.353 12.353 0 0 1 -3.935.648h-11.806v276.059z" fill="#50d1ef"/><path d="m320.352 296.785h-43.138a7.871 7.871 0 0 1 0-15.741h43.138a7.871 7.871 0 0 1 0 15.741zm-85.566 0h-43.138a7.871 7.871 0 0 1 0-15.741h43.138a7.871 7.871 0 0 1 0 15.741zm85.566-36.756h-43.138a7.871 7.871 0 0 1 0-15.741h43.138a7.871 7.871 0 0 1 0 15.741zm-85.566 0h-43.138a7.871 7.871 0 0 1 0-15.741h43.138a7.871 7.871 0 0 1 0 15.741zm85.566-41.719h-43.138a7.871 7.871 0 0 1 0-15.741h43.138a7.871 7.871 0 0 1 0 15.741zm-85.566 0h-43.138a7.871 7.871 0 0 1 0-15.741h43.138a7.871 7.871 0 0 1 0 15.741z" fill="#68dbf9"/><rect fill="#fb4a59" height="141.656" rx="3.935" width="142.72" x="184.64" y="21.544"/><path d="m323.425 21.544h-13.773a3.936 3.936 0 0 1 3.935 3.936v133.785a3.935 3.935 0 0 1 -3.935 3.935h13.773a3.935 3.935 0 0 0 3.935-3.935v-133.785a3.936 3.936 0 0 0 -3.935-3.936z" fill="#f82f40"/><path d="m291.633 75.083h-18.284v-18.403a3.935 3.935 0 0 0 -3.935-3.935h-26.828a3.935 3.935 0 0 0 -3.935 3.935v18.4h-18.284a3.935 3.935 0 0 0 -3.935 3.935v26.71a3.935 3.935 0 0 0 3.935 3.935h18.284v18.4a3.936 3.936 0 0 0 3.935 3.94h26.828a3.936 3.936 0 0 0 3.935-3.936v-18.4h18.284a3.935 3.935 0 0 0 3.935-3.935v-26.711a3.935 3.935 0 0 0 -3.935-3.935z" fill="#f0f7ff"/><path d="m264.5 56.68v18.4h8.854v-18.4a3.935 3.935 0 0 0 -3.935-3.935h-8.859a3.935 3.935 0 0 1 3.94 3.935z" fill="#d7e6f4"/><path d="m264.5 128.064a3.936 3.936 0 0 1 -3.94 3.936h8.854a3.936 3.936 0 0 0 3.935-3.936v-18.4h-8.849z" fill="#d7e6f4"/><path d="m291.633 75.083h-8.855a3.936 3.936 0 0 1 3.936 3.935v26.71a3.936 3.936 0 0 1 -3.936 3.935h8.855a3.935 3.935 0 0 0 3.935-3.935v-26.71a3.935 3.935 0 0 0 -3.935-3.935z" fill="#d7e6f4"/><path d="m364.907 114.626h-14.578v360.089h18.514v-360.744a12.244 12.244 0 0 1 -3.936.655z" fill="#d9e4f4"/><path d="m184.64 70.119h-37.548a12.339 12.339 0 0 0 -12.326 12.326v19.855a12.339 12.339 0 0 0 12.326 12.326h37.548z" fill="#8d9da7"/><path d="m364.907 70.119h-37.547v44.507h37.547a12.34 12.34 0 0 0 12.327-12.326v-19.855a12.34 12.34 0 0 0 -12.327-12.326z" fill="#8d9da7"/><path d="m364.907 70.119h-14.757a12.34 12.34 0 0 1 12.327 12.326v19.855a12.34 12.34 0 0 1 -12.327 12.326h14.757a12.34 12.34 0 0 0 12.327-12.326v-19.855a12.34 12.34 0 0 0 -12.327-12.326z" fill="#7e939e"/><path d="m128.4 198.656v276.059h5.66 9.097v-276.059z" fill="#50d1ef"/><path d="m368.843 154.03h14.757v44.626h-14.757z" fill="#7e939e"/><path d="m368.843 198.656v276.059h5.659 9.098v-276.059z" fill="#50d1ef"/><g fill="#c9f0fd"><path d="m69.681 322.9h73.476v-15.737h-73.476a7.871 7.871 0 1 0 0 15.741z"/><path d="m69.681 286.148h73.476v-15.741h-73.476a7.871 7.871 0 1 0 0 15.741z"/><path d="m69.681 244.311h73.476v-15.741h-73.476a7.871 7.871 0 1 0 0 15.741z"/><path d="m69.681 364.742h73.476v-15.742h-73.476a7.871 7.871 0 1 0 0 15.741z"/><path d="m143.157 427.476h-73.476a7.871 7.871 0 1 0 0 15.741h73.476z"/><path d="m69.681 401.5h73.476v-15.744h-73.476a7.871 7.871 0 1 0 0 15.741z"/><path d="m368.843 244.311h73.476a7.871 7.871 0 0 0 0-15.741h-73.476z"/><path d="m442.319 427.476h-73.476v15.741h73.476a7.871 7.871 0 0 0 0-15.741z"/><path d="m442.319 385.756h-73.476v15.744h73.476a7.871 7.871 0 0 0 0-15.741z"/><path d="m442.319 349h-73.476v15.741h73.476a7.871 7.871 0 0 0 0-15.741z"/><path d="m442.319 270.407h-73.476v15.741h73.476a7.871 7.871 0 0 0 0-15.741z"/><path d="m442.319 307.163h-73.476v15.737h73.476a7.871 7.871 0 0 0 0-15.741z"/></g></svg>